<svg width="20" height="20" viewBox="0 0 20 20" fill="none" xmlns="http://www.w3.org/2000/svg">
<path fill-rule="evenodd" clip-rule="evenodd" d="M17.1392 3.21871H11.1067V1.79724L1.19092 3.32769V16.7426L11.1067 18.4506V16.3437H17.1392C17.3219 16.3529 17.5008 16.2894 17.6368 16.1671C17.7729 16.0448 17.8549 15.8736 17.8651 15.691V3.87079C17.8548 3.68825 17.7726 3.5172 17.6366 3.39502C17.5006 3.27284 17.3218 3.20945 17.1392 3.21871ZM17.2344 15.7994H11.0864L11.0763 14.6745H12.5573V13.3643H11.065L11.0579 12.5902H12.5573V11.2801H11.0465L11.0394 10.5059H12.5573V9.1958H11.0346V8.42165H12.5573V7.11153H11.0346V6.33738H12.5573V5.02726H11.0346V3.83625H17.2344V15.7994Z" fill="#20744A"/>
<path d="M13.3911 5.02539H15.9655V6.3355H13.3911V5.02539ZM13.3911 7.11026H15.9655V8.42037H13.3911V7.11026ZM13.3911 9.19512H15.9655V10.5052H13.3911V9.19512ZM13.3911 11.28H15.9655V12.5901H13.3911V11.28ZM13.3911 13.3649H15.9655V14.675H13.3911V13.3649Z" fill="#20744A"/>
<path fill-rule="evenodd" clip-rule="evenodd" d="M3.77949 6.95135L5.05745 6.8781L5.86079 9.08683L6.81002 6.78699L8.08798 6.71375L6.53609 9.84968L8.08798 12.9934L6.73678 12.9022L5.82446 10.5059L4.91155 12.8111L3.66992 12.7016L5.11224 9.92471L3.77949 6.95135Z" fill="white"/>
</svg>
