<svg width="20" height="20" viewBox="0 0 20 20" fill="none" xmlns="http://www.w3.org/2000/svg">
<path d="M15.2956 1.23389L18.609 4.68782V17.8223H6.23145V17.8652H18.6513V4.73129L15.2956 1.23389Z" fill="#909090"/>
<path d="M15.2543 1.19104H6.18896V17.8223H18.6088V4.68844L15.2543 1.19104Z" fill="#F4F4F4"/>
<path d="M6.09776 2.08423H2.29248V6.14974H14.2621V2.08423H6.09776Z" fill="#7A7B7C"/>
<path d="M14.3261 6.0807H2.37012V2.01221H14.3261V6.0807Z" fill="#DD2025"/>
<path d="M6.33448 2.70006H5.55615V5.55848H6.16833V4.59436L6.30351 4.6021C6.43486 4.59984 6.56498 4.57631 6.6888 4.53243C6.79737 4.49509 6.89724 4.43614 6.98239 4.35914C7.06903 4.28578 7.13735 4.1932 7.18188 4.08878C7.24161 3.91518 7.26294 3.7307 7.24441 3.54806C7.24069 3.41759 7.21782 3.28837 7.17652 3.16455C7.13893 3.07517 7.08314 2.99459 7.01271 2.92795C6.94227 2.86131 6.85873 2.81006 6.76741 2.77747C6.68845 2.74889 6.60687 2.72814 6.52385 2.71554C6.46098 2.70584 6.39749 2.70067 6.33388 2.70006M6.22133 4.06615H6.16833V3.1848H6.28326C6.33399 3.18114 6.38489 3.18893 6.4322 3.20758C6.47951 3.22624 6.52203 3.25529 6.5566 3.29258C6.62825 3.38847 6.66653 3.50518 6.66558 3.62488C6.66558 3.77137 6.66558 3.90417 6.53338 3.99766C6.43814 4.05005 6.32973 4.07423 6.22133 4.06615ZM8.40743 2.69232C8.34133 2.69232 8.27702 2.69708 8.23176 2.69887L8.09003 2.70244H7.62553V5.56087H8.17221C8.38113 5.56659 8.58913 5.53118 8.78439 5.45665C8.94155 5.39432 9.08072 5.29383 9.18933 5.16426C9.29495 5.03352 9.37076 4.8813 9.41146 4.71823C9.45824 4.53354 9.48106 4.3436 9.47934 4.15309C9.4909 3.92808 9.47348 3.70252 9.42753 3.48196C9.38393 3.3196 9.30228 3.16997 9.18933 3.04545C9.10072 2.94491 8.99224 2.8638 8.87074 2.80725C8.76639 2.75896 8.65663 2.72337 8.5438 2.70125C8.49894 2.69384 8.4535 2.69045 8.40803 2.69112M8.29965 5.03563H8.2401V3.211H8.24784C8.37061 3.19688 8.49482 3.21903 8.60514 3.27472C8.68593 3.33923 8.75176 3.4205 8.79809 3.51292C8.84808 3.61019 8.8769 3.71695 8.88265 3.82616C8.88801 3.95717 8.88265 4.06436 8.88265 4.15309C8.88507 4.2553 8.8785 4.35753 8.863 4.45859C8.84464 4.56234 8.81071 4.66272 8.76235 4.75634C8.70762 4.84337 8.63367 4.91671 8.54619 4.97072C8.47271 5.01824 8.38571 5.04041 8.29846 5.03384M11.3236 2.70244H9.87655V5.56087H10.4887V4.42702H11.2629V3.89583H10.4887V3.23363H11.3224V2.70244" fill="#464648"/>
<path d="M13.9143 12.062C13.9143 12.062 15.8128 11.7178 15.8128 12.3663C15.8128 13.0148 14.6366 12.751 13.9143 12.062ZM12.5107 12.1114C12.2091 12.1781 11.9151 12.2757 11.6335 12.4026L11.8717 11.8667C12.1099 11.3307 12.357 10.6 12.357 10.6C12.6413 11.0784 12.972 11.5276 13.3444 11.9411C13.0636 11.983 12.7852 12.0403 12.5107 12.1126V12.1114ZM11.7592 8.24065C11.7592 7.67552 11.942 7.52128 12.0843 7.52128C12.2266 7.52128 12.3868 7.58977 12.3922 8.08046C12.3458 8.57388 12.2425 9.06026 12.0843 9.52992C11.8676 9.1356 11.7555 8.69237 11.7586 8.24244L11.7592 8.24065ZM8.99065 14.503C8.40824 14.1546 10.212 13.0821 10.539 13.0476C10.5372 13.0482 9.60045 14.8674 8.99065 14.503ZM16.3672 12.4431C16.3612 12.3836 16.3076 11.7244 15.1345 11.7524C14.6455 11.7445 14.1567 11.7789 13.6737 11.8554C13.2058 11.384 12.8029 10.8523 12.4755 10.2743C12.6818 9.67846 12.8066 9.05749 12.8465 8.42824C12.8293 7.71363 12.6584 7.30392 12.1105 7.30988C11.5626 7.31583 11.4828 7.79522 11.5549 8.50863C11.6255 8.98804 11.7586 9.45613 11.9509 9.90092C11.9509 9.90092 11.6978 10.6888 11.3631 11.4725C11.0285 12.2561 10.7998 12.667 10.7998 12.667C10.2178 12.8565 9.66996 13.138 9.17704 13.5008C8.68635 13.9575 8.48685 14.3083 8.7453 14.659C8.96802 14.9615 9.74754 15.03 10.4443 14.1171C10.8145 13.6456 11.1527 13.1498 11.4566 12.6331C11.4566 12.6331 12.519 12.3419 12.8495 12.2621C13.18 12.1823 13.5796 12.1192 13.5796 12.1192C13.5796 12.1192 14.5497 13.0952 15.4852 13.0607C16.4208 13.0261 16.3755 12.5015 16.3696 12.4443" fill="#DD2025"/>
<path d="M15.2085 1.23682V4.73422H18.563L15.2085 1.23682Z" fill="#909090"/>
<path d="M15.2544 1.19104V4.68844H18.6089L15.2544 1.19104Z" fill="#F4F4F4"/>
<path d="M6.28858 2.65416H5.51025V5.51259H6.12482V4.54906L6.26059 4.5568C6.39194 4.55454 6.52206 4.53101 6.64588 4.48712C6.75444 4.44977 6.85431 4.39082 6.93947 4.31383C7.02546 4.24028 7.09315 4.14772 7.13717 4.04347C7.1969 3.86988 7.21824 3.68539 7.1997 3.50275C7.19598 3.37228 7.17311 3.24307 7.13182 3.11925C7.09422 3.02987 7.03843 2.94929 6.968 2.88265C6.89756 2.81601 6.81403 2.76476 6.7227 2.73217C6.64338 2.70331 6.5614 2.68236 6.47795 2.66964C6.41508 2.65994 6.3516 2.65477 6.28798 2.65416M6.17543 4.02025H6.12243V3.1389H6.23796C6.28869 3.13524 6.33959 3.14303 6.3869 3.16169C6.43421 3.18034 6.47672 3.20939 6.5113 3.24669C6.58295 3.34257 6.62123 3.45928 6.62028 3.57898C6.62028 3.72547 6.62028 3.85827 6.48807 3.95177C6.39283 4.00415 6.28442 4.02773 6.17603 4.01965M8.36154 2.64642C8.29543 2.64642 8.23112 2.65118 8.18586 2.65297L8.04592 2.65654H7.58142V5.51497H8.1281C8.33702 5.52069 8.54502 5.48528 8.74028 5.41075C8.89744 5.34842 9.03661 5.24793 9.14522 5.11836C9.25084 4.98762 9.32665 4.8354 9.36734 4.67233C9.41413 4.48764 9.43695 4.2977 9.43523 4.10719C9.44678 3.88218 9.42937 3.65663 9.38342 3.43606C9.33982 3.2737 9.25817 3.12407 9.14522 2.99955C9.05661 2.89901 8.94813 2.8179 8.82663 2.76135C8.72228 2.71306 8.61252 2.67748 8.49969 2.65535C8.45483 2.64794 8.40939 2.64455 8.36392 2.64523M8.25553 4.98973H8.19598V3.1651H8.20373C8.32649 3.15098 8.45071 3.17313 8.56103 3.22882C8.64182 3.29333 8.70765 3.3746 8.75397 3.46702C8.80397 3.56429 8.83279 3.67105 8.83853 3.78026C8.84389 3.91127 8.83853 4.01846 8.83853 4.10719C8.84096 4.2094 8.83438 4.31163 8.81888 4.41269C8.80053 4.51644 8.7666 4.61683 8.71824 4.71044C8.66351 4.79748 8.58956 4.87081 8.50207 4.92482C8.4286 4.97234 8.3416 4.99451 8.25434 4.98795M11.2777 2.65654H9.83065V5.51497H10.4428V4.38112H11.217V3.84993H10.4428V3.18773H11.2765V2.65654" fill="white"/>
</svg>
