<svg width="17" height="17" viewBox="0 0 17 17" fill="none" xmlns="http://www.w3.org/2000/svg">
<g opacity="0.5" clip-path="url(#clip0_0_450)">
<path d="M15.5832 15.5833L14.1665 14.1666M8.14567 14.875C9.02936 14.875 9.90439 14.7009 10.7208 14.3627C11.5372 14.0246 12.279 13.5289 12.9039 12.904C13.5288 12.2792 14.0244 11.5374 14.3626 10.7209C14.7008 9.90451 14.8748 9.02948 14.8748 8.14579C14.8748 7.26211 14.7008 6.38707 14.3626 5.57065C14.0244 4.75423 13.5288 4.01241 12.9039 3.38755C12.279 2.76269 11.5372 2.26703 10.7208 1.92885C9.90439 1.59068 9.02936 1.41663 8.14567 1.41663C6.36098 1.41663 4.64939 2.12559 3.38743 3.38755C2.12547 4.64952 1.4165 6.36111 1.4165 8.14579C1.4165 9.93048 2.12547 11.6421 3.38743 12.904C4.64939 14.166 6.36098 14.875 8.14567 14.875V14.875Z" stroke="black" stroke-width="1.30769" stroke-linecap="round" stroke-linejoin="round"/>
</g>
<defs>
<clipPath id="clip0_0_450">
<rect width="17" height="17" fill="white"/>
</clipPath>
</defs>
</svg>
