<svg width="22" height="22" viewBox="0 0 22 22" fill="none" xmlns="http://www.w3.org/2000/svg">
<path d="M10.9252 21.6961C9.45319 21.6961 8.06194 21.4132 6.75148 20.8474C5.44102 20.2823 4.29679 19.5103 3.31879 18.5316C2.34007 17.5536 1.56816 16.4094 1.00305 15.0989C0.437213 13.7885 0.154297 12.3972 0.154297 10.9252C0.154297 9.43524 0.437213 8.03968 1.00305 6.73856C1.56816 5.43671 2.34007 4.29679 3.31879 3.31879C4.29679 2.34007 5.44102 1.5678 6.75148 1.00197C8.06194 0.436854 9.45319 0.154297 10.9252 0.154297C12.4152 0.154297 13.8107 0.436854 15.1119 1.00197C16.4137 1.5678 17.5536 2.34007 18.5316 3.31879C19.5103 4.29679 20.2823 5.43671 20.8474 6.73856C21.4132 8.03968 21.6961 9.43524 21.6961 10.9252C21.6961 12.3972 21.4132 13.7885 20.8474 15.0989C20.2823 16.4094 19.5103 17.5536 18.5316 18.5316C17.5536 19.5103 16.4137 20.2823 15.1119 20.8474C13.8107 21.4132 12.4152 21.6961 10.9252 21.6961ZM10.9252 19.4881C11.392 18.8418 11.7959 18.1687 12.1369 17.4685C12.478 16.7684 12.7563 16.0234 12.9717 15.2336H8.87874C9.09416 16.0234 9.37241 16.7684 9.71348 17.4685C10.0546 18.1687 10.4585 18.8418 10.9252 19.4881ZM8.12477 19.0573C7.80165 18.4649 7.51909 17.8498 7.2771 17.2122C7.0344 16.5753 6.83226 15.9157 6.6707 15.2336H3.49328C4.01387 16.1312 4.66444 16.912 5.44497 17.5763C6.22622 18.2405 7.11949 18.7341 8.12477 19.0573ZM13.7256 19.0573C14.7309 18.7341 15.6238 18.2405 16.4044 17.5763C17.1856 16.912 17.8365 16.1312 18.3571 15.2336H15.1797C15.0182 15.9157 14.8164 16.5753 14.5744 17.2122C14.3317 17.8498 14.0488 18.4649 13.7256 19.0573ZM2.57775 13.0794H6.23986C6.18601 12.7204 6.14544 12.3656 6.11815 12.0152C6.09158 11.6655 6.0783 11.3022 6.0783 10.9252C6.0783 10.5482 6.09158 10.1849 6.11815 9.83519C6.14544 9.48478 6.18601 9.13006 6.23986 8.77103H2.57775C2.48799 9.13006 2.4205 9.48478 2.37526 9.83519C2.33074 10.1849 2.30848 10.5482 2.30848 10.9252C2.30848 11.3022 2.33074 11.6655 2.37526 12.0152C2.4205 12.3656 2.48799 12.7204 2.57775 13.0794ZM8.39405 13.0794H13.4564C13.5102 12.7204 13.5508 12.3656 13.5781 12.0152C13.6047 11.6655 13.6179 11.3022 13.6179 10.9252C13.6179 10.5482 13.6047 10.1849 13.5781 9.83519C13.5508 9.48478 13.5102 9.13006 13.4564 8.77103H8.39405C8.34019 9.13006 8.29998 9.48478 8.27341 9.83519C8.24613 10.1849 8.23248 10.5482 8.23248 10.9252C8.23248 11.3022 8.24613 11.6655 8.27341 12.0152C8.29998 12.3656 8.34019 12.7204 8.39405 13.0794ZM15.6106 13.0794H19.2727C19.3624 12.7204 19.4299 12.3656 19.4752 12.0152C19.5197 11.6655 19.5419 11.3022 19.5419 10.9252C19.5419 10.5482 19.5197 10.1849 19.4752 9.83519C19.4299 9.48478 19.3624 9.13006 19.2727 8.77103H15.6106C15.6644 9.13006 15.7046 9.48478 15.7312 9.83519C15.7585 10.1849 15.7721 10.5482 15.7721 10.9252C15.7721 11.3022 15.7585 11.6655 15.7312 12.0152C15.7046 12.3656 15.6644 12.7204 15.6106 13.0794ZM15.1797 6.61685H18.3571C17.8365 5.71927 17.1856 4.93838 16.4044 4.27417C15.6238 3.60997 14.7309 3.1163 13.7256 2.79317C14.0488 3.38557 14.3317 4.00023 14.5744 4.63715C14.8164 5.27479 15.0182 5.93469 15.1797 6.61685ZM8.87874 6.61685H12.9717C12.7563 5.82698 12.478 5.08199 12.1369 4.38188C11.7959 3.68177 11.392 3.00859 10.9252 2.36233C10.4585 3.00859 10.0546 3.68177 9.71348 4.38188C9.37241 5.08199 9.09416 5.82698 8.87874 6.61685ZM3.49328 6.61685H6.6707C6.83226 5.93469 7.0344 5.27479 7.2771 4.63715C7.51909 4.00023 7.80165 3.38557 8.12477 2.79317C7.11949 3.1163 6.22622 3.60997 5.44497 4.27417C4.66444 4.93838 4.01387 5.71927 3.49328 6.61685Z" fill="#621280"/>
</svg>
